<svg xmlns="http://www.w3.org/2000/svg" xmlns:xlink="http://www.w3.org/1999/xlink" fill="none" viewBox="0 0 12 12">
  <path fill="url(#a)" d="M5.327.595a.56.56 0 0 1 .814 0l1.02 1.091a.56.56 0 0 0 .426.177l1.493-.05a.56.56 0 0 1 .576.575l-.05 1.493a.56.56 0 0 0 .176.426l1.091 1.02a.557.557 0 0 1 0 .815l-1.09 1.02a.56.56 0 0 0-.177.426l.05 1.492a.56.56 0 0 1-.576.576l-1.493-.05a.56.56 0 0 0-.426.176l-1.02 1.092a.557.557 0 0 1-.814 0l-1.02-1.092a.56.56 0 0 0-.426-.176l-1.493.05a.56.56 0 0 1-.576-.576l.05-1.492a.56.56 0 0 0-.176-.427L.595 6.141a.56.56 0 0 1 0-.814l1.091-1.02a.56.56 0 0 0 .177-.426l-.05-1.493a.56.56 0 0 1 .575-.576l1.493.05a.56.56 0 0 0 .426-.176z"/>
  <path fill="url(#b)" fill-rule="evenodd" d="M5.021.31a.976.976 0 0 1 1.426 0l1.02 1.09a.14.14 0 0 0 .106.045l1.493-.05a.976.976 0 0 1 1.008 1.007l-.05 1.493a.14.14 0 0 0 .044.107l1.091 1.02a.976.976 0 0 1 0 1.425l-1.091 1.02a.14.14 0 0 0-.044.107l.05 1.492a.976.976 0 0 1-1.008 1.008l-1.493-.05a.14.14 0 0 0-.106.044l-1.02 1.091a.976.976 0 0 1-1.426 0l-1.02-1.091a.14.14 0 0 0-.106-.044l-1.493.05a.976.976 0 0 1-1.008-1.008l.05-1.493a.14.14 0 0 0-.043-.106L.309 6.447a.976.976 0 0 1 0-1.425l1.092-1.02a.14.14 0 0 0 .044-.107l-.05-1.493a.976.976 0 0 1 1.007-1.008l1.493.05a.14.14 0 0 0 .107-.043L5.022.309zm.815.57a.14.14 0 0 0-.204 0l-1.02 1.092a.98.98 0 0 1-.745.309l-1.493-.05a.14.14 0 0 0-.144.143l.05 1.493a.98.98 0 0 1-.308.746L.88 5.633a.14.14 0 0 0 0 .203l1.092 1.02a.98.98 0 0 1 .309.746l-.05 1.492a.14.14 0 0 0 .143.144l1.493-.05a.98.98 0 0 1 .746.309l1.02 1.091a.14.14 0 0 0 .203 0l1.02-1.091a.98.98 0 0 1 .746-.309l1.492.05a.14.14 0 0 0 .144-.144l-.05-1.492a.98.98 0 0 1 .309-.746l1.091-1.02a.14.14 0 0 0 0-.204l-1.091-1.02a.98.98 0 0 1-.309-.745l.05-1.493a.14.14 0 0 0-.144-.144l-1.492.05a.98.98 0 0 1-.746-.308z" clip-rule="evenodd"/>
  <path fill="#fff" fill-rule="evenodd" d="M8.155 3.588c.185.139.222.4.084.585l-2.347 3.13a.474.474 0 0 1-.743.018L3.6 5.464a.418.418 0 1 1 .643-.535l1.254 1.505L7.57 3.672a.42.42 0 0 1 .585-.084" clip-rule="evenodd"/>
  <defs>
    <linearGradient id="a" x1=".418" x2="11.05" y1="5.734" y2="5.734" gradientUnits="userSpaceOnUse">
      <stop stop-color="#049A0E"/>
      <stop offset="1" stop-color="#02B346"/>
    </linearGradient>
    <linearGradient id="b" x1="0" x2="11.469" y1="5.734" y2="5.734" gradientUnits="userSpaceOnUse">
      <stop stop-color="#049A0E"/>
      <stop offset="1" stop-color="#02B346"/>
    </linearGradient>
  </defs>
</svg>
