<svg xmlns="http://www.w3.org/2000/svg" xmlns:xlink="http://www.w3.org/1999/xlink" fill="none" viewBox="0 0 32 32">
  <path fill="url(#a)" fill-rule="evenodd" d="M0 15.869C0 7.115 7.119 0 15.86 0s15.86 7.115 15.86 15.869c0 8.735-7.12 15.85-15.86 15.85C7.119 31.72 0 24.604 0 15.87zm21.677 1.605c.169-.168.383-.428.429-.49.245-.32.367-.719.367-1.115 0-.445-.138-.858-.398-1.195-.021-.021-.063-.067-.117-.126-.102-.11-.248-.27-.388-.41-1.255-1.346-4.531-3.55-6.246-4.223-.26-.105-.918-.336-1.27-.352a2.1 2.1 0 0 0-.965.23c-.383.214-.689.55-.857.949-.107.275-.276 1.101-.276 1.117-.168.902-.26 2.371-.26 3.993 0 1.547.092 2.953.23 3.871.003.004.017.07.037.172.062.31.192.956.33 1.22a1.93 1.93 0 0 0 1.7 1.041h.06c.46-.015 1.424-.413 1.424-.428 1.623-.673 4.822-2.77 6.108-4.162z" clip-rule="evenodd"/>
  <defs>
    <linearGradient id="a" x1="15.86" x2="15.86" y1="30.451" y2="0" gradientUnits="userSpaceOnUse">
      <stop stop-color="#fff"/>
      <stop offset="1" stop-color="#fff" stop-opacity=".8"/>
    </linearGradient>
  </defs>
</svg>
