<svg xmlns="http://www.w3.org/2000/svg" xmlns:xlink="http://www.w3.org/1999/xlink" fill="none" viewBox="0 0 32 32">
  <path fill="url(#a)" fill-rule="evenodd" d="M0 15.869C0 7.115 7.119 0 15.86 0s15.86 7.115 15.86 15.869c0 8.735-7.12 15.85-15.86 15.85C7.119 31.72 0 24.604 0 15.87zm21.677 1.605c.168-.168.383-.428.428-.49a1.84 1.84 0 0 0 .368-1.115c0-.445-.138-.858-.398-1.195l-.118-.126c-.101-.11-.248-.27-.387-.41-1.256-1.346-4.532-3.55-6.246-4.223-.26-.105-.919-.336-1.27-.352a2.1 2.1 0 0 0-.965.23 1.97 1.97 0 0 0-.857.949c-.108.275-.276 1.101-.276 1.117-.168.902-.26 2.371-.26 3.993 0 1.547.091 2.953.23 3.871.003.004.016.07.037.172.062.31.192.956.33 1.22a1.93 1.93 0 0 0 1.699 1.041h.061c.46-.015 1.424-.413 1.424-.428 1.623-.673 4.822-2.77 6.108-4.162z" clip-rule="evenodd"/>
  <defs>
    <linearGradient id="a" x1="15.86" x2="15.86" y1="30.451" y2="0" gradientUnits="userSpaceOnUse">
      <stop stop-color="#fff"/>
      <stop offset="1" stop-color="#fff" stop-opacity=".8"/>
    </linearGradient>
  </defs>
</svg>
