<svg xmlns="http://www.w3.org/2000/svg" xmlns:xlink="http://www.w3.org/1999/xlink" fill="none" viewBox="0 0 10 34">
  <g filter="url(#a)">
    <path fill="#fff" fill-opacity=".3" d="M2.507 3.528c.23-1.724 3.577-1.543 5.025-1.382.233.026.303.33.116.47-.734.551-1.986 1.624-2.3 2.724-1.538 5.397-1.215 14.526-.95 18.837a9.8 9.8 0 0 1-.798 4.584l-1.093 2.465s-1.033-19.932 0-27.698"/>
    <path fill="url(#b)" d="M2.507 3.528c.23-1.724 3.577-1.543 5.025-1.382.233.026.303.33.116.47-.734.551-1.986 1.624-2.3 2.724-1.538 5.397-1.215 14.526-.95 18.837a9.8 9.8 0 0 1-.798 4.584l-1.093 2.465s-1.033-19.932 0-27.698"/>
  </g>
  <defs>
    <linearGradient id="b" x1="2.048" x2="4.636" y1="2.824" y2="5.149" gradientUnits="userSpaceOnUse">
      <stop stop-color="#fff"/>
      <stop offset="1" stop-color="#fff" stop-opacity="0"/>
    </linearGradient>
    <filter id="a" width="9.803" height="33.274" x="0" y="0" color-interpolation-filters="sRGB" filterUnits="userSpaceOnUse">
      <feFlood flood-opacity="0" result="BackgroundImageFix"/>
      <feBlend in="SourceGraphic" in2="BackgroundImageFix" result="shape"/>
      <feGaussianBlur result="effect1_foregroundBlur_3147_2015" stdDeviation="1.024"/>
    </filter>
  </defs>
</svg>
