<svg xmlns="http://www.w3.org/2000/svg" xmlns:xlink="http://www.w3.org/1999/xlink" fill="none" viewBox="0 0 72 72">
  <g clip-path="url(#a)">
    <path fill="#ECEFF1" d="M61.56 10.347C54.72 3.735 45.72 0 36.135 0 8.625 0-8.649 29.805 5.088 53.514L0 72l19.005-4.956c8.28 4.473 15.063 4.077 17.148 4.341 31.899 0 47.778-38.592 25.362-60.921z"/>
    <path fill="#4CAF50" d="m36.201 65.253-.018-.003h-.048c-9.546 0-15.645-4.521-16.245-4.782L8.64 63.393l3.015-10.935-.717-1.125a29.6 29.6 0 0 1-4.548-15.78c0-26.379 32.235-39.57 50.889-20.925 18.609 18.45 5.544 50.625-21.078 50.625"/>
    <path fill="#FAFAFA" d="m52.521 42.921-.027.225c-.903-.45-5.301-2.601-6.12-2.898-1.839-.681-1.32-.108-4.851 3.936-.525.585-1.047.63-1.938.225-.9-.45-3.789-1.395-7.209-4.455-2.664-2.385-4.452-5.31-4.98-6.21-.879-1.518.96-1.734 2.634-4.902.3-.63.147-1.125-.075-1.572-.225-.45-2.016-4.86-2.766-6.618-.72-1.752-1.461-1.53-2.016-1.53-1.728-.15-2.991-.126-4.104 1.032-4.842 5.322-3.621 10.812.522 16.65 8.142 10.656 12.48 12.618 20.412 15.342 2.142.681 4.095.585 5.64.363 1.722-.273 5.301-2.163 6.048-4.278.765-2.115.765-3.87.54-4.275-.222-.405-.81-.63-1.71-1.035"/>
  </g>
  <defs>
    <clipPath id="a">
      <path fill="#fff" d="M0 0h72v72H0z"/>
    </clipPath>
  </defs>
</svg>
